<?xml version="1.0" encoding="UTF-8"?>
<svg version="1.1" xmlns="http://www.w3.org/2000/svg" width="225" height="225">
<path d="M0 0 C74.25 0 148.5 0 225 0 C225 74.25 225 148.5 225 225 C150.75 225 76.5 225 0 225 C0 150.75 0 76.5 0 0 Z " fill="#FCFCFC" transform="translate(0,0)"/>
<path d="M0 0 C0.70253906 0.00386719 1.40507812 0.00773438 2.12890625 0.01171875 C2.83144531 0.00785156 3.53398437 0.00398437 4.2578125 0 C9.50229247 0.01010497 9.50229247 0.01010497 10.62890625 1.13671875 C10.72574206 3.21232681 10.75077527 5.29129079 10.74916077 7.36915588 C10.75001519 8.02746224 10.75086962 8.68576859 10.75174993 9.36402363 C10.75340655 11.58588981 10.74788043 13.8076817 10.74243164 16.02954102 C10.74214978 17.61587523 10.74230748 19.20220957 10.74287415 20.7885437 C10.74316217 25.10860597 10.73726462 29.42864072 10.73030019 33.74869657 C10.7240675 38.2584019 10.72346292 42.7681078 10.72227478 47.27781677 C10.71916121 55.82366249 10.71094749 64.36949549 10.70092529 72.9153356 C10.68767992 84.45904392 10.68226445 96.00275569 10.67642307 107.54646969 C10.66700761 125.74322892 10.64708887 143.93996128 10.62890625 162.13671875 C42.30890625 162.13671875 73.98890625 162.13671875 106.62890625 162.13671875 C106.62890625 157.84671875 106.62890625 153.55671875 106.62890625 149.13671875 C107.27516393 146.79765058 107.9415902 144.46405318 108.62890625 142.13671875 C108.95722014 137.98574709 108.97714152 133.83826137 109.0078125 129.67578125 C109.02480698 128.48947113 109.04180145 127.30316101 109.05931091 126.0809021 C109.11227004 122.30789441 109.15268848 118.53489735 109.19140625 114.76171875 C109.23529466 110.9671701 109.28189911 107.17270746 109.33421326 103.37826538 C109.36624814 101.02011599 109.39311366 98.66188989 109.41444397 96.30361938 C109.42793381 95.24516815 109.44142365 94.18671692 109.45532227 93.09619141 C109.46959007 91.69223618 109.46959007 91.69223618 109.48414612 90.25991821 C109.62890625 88.13671875 109.62890625 88.13671875 110.62890625 87.13671875 C112.76243799 87.03668586 114.89928167 87.00590827 117.03515625 87.00390625 C118.33582031 87.00261719 119.63648438 87.00132813 120.9765625 87 C121.65734863 87.00209473 122.33813477 87.00418945 123.03955078 87.00634766 C125.1201914 87.01169635 127.20061614 87.00640195 129.28125 87 C131.23224609 87.00193359 131.23224609 87.00193359 133.22265625 87.00390625 C134.42599609 87.00503418 135.62933594 87.00616211 136.86914062 87.00732422 C139.62890625 87.13671875 139.62890625 87.13671875 140.62890625 88.13671875 C140.71560057 89.62543735 140.73594119 91.11816375 140.7265625 92.609375 C140.72333984 93.50849609 140.72011719 94.40761719 140.71679688 95.33398438 C140.70841797 96.27951172 140.70003906 97.22503906 140.69140625 98.19921875 C140.68689453 99.14861328 140.68238281 100.09800781 140.67773438 101.07617188 C140.66590735 103.4297494 140.6494265 105.78320352 140.62890625 108.13671875 C141.34796143 107.90662109 142.0670166 107.67652344 142.80786133 107.43945312 C147.26169974 106.01422483 150.93116212 105.05412105 155.62890625 105.13671875 C155.62668564 104.29955826 155.62446503 103.46239777 155.62217712 102.59986877 C155.60217593 94.72704461 155.586933 86.85422892 155.57709408 78.98138523 C155.57186584 74.93346133 155.56476926 70.88555834 155.5534668 66.83764648 C155.54263582 62.93435904 155.53662897 59.03109176 155.53402901 55.12779045 C155.53217514 53.63538228 155.52855525 52.14297527 155.52317619 50.65057564 C155.51596294 48.56723736 155.51491542 46.48398344 155.51538086 44.40063477 C155.51316025 43.21260757 155.51093964 42.02458038 155.50865173 40.80055237 C155.62890625 38.13671875 155.62890625 38.13671875 156.62890625 37.13671875 C160.74468214 36.91882689 164.86355548 36.95092687 168.98461914 36.95141602 C171.05440889 36.94923141 173.12366418 36.93108384 175.19335938 36.91210938 C177.13952148 36.90920898 177.13952148 36.90920898 179.125 36.90625 C180.32310303 36.90214111 181.52120605 36.89803223 182.75561523 36.89379883 C185.62890625 37.13671875 185.62890625 37.13671875 187.62890625 39.13671875 C187.81656398 41.54598109 187.88091606 43.83920272 187.85595703 46.24853516 C187.85624908 46.980345 187.85654114 47.71215485 187.85684204 48.46614075 C187.85544626 50.89030729 187.83987365 53.31416826 187.82421875 55.73828125 C187.8204895 57.41693962 187.81764211 59.09560016 187.81564331 60.77426147 C187.80799994 65.19663482 187.78834547 69.6188772 187.76623535 74.04119873 C187.74579204 78.55218738 187.73664484 83.06319715 187.7265625 87.57421875 C187.70510019 96.42844302 187.6709558 105.28257 187.62890625 114.13671875 C188.23089844 114.42546875 188.83289063 114.71421875 189.453125 115.01171875 C199.71482165 120.31758703 205.86202138 131.61434613 209.62890625 142.13671875 C212.91665085 157.13965456 210.89572433 173.11083914 202.62890625 186.13671875 C194.51587477 196.60764849 186.03101156 202.65911942 173.62890625 207.13671875 C172.95085937 207.38550781 172.2728125 207.63429687 171.57421875 207.890625 C160.22623081 211.37294748 146.75707401 209.73411183 136.28515625 204.44921875 C128.48307292 199.99088542 128.48307292 199.99088542 125.62890625 197.13671875 C120.09510136 197.366877 115.71089438 201.03388006 111.24414062 203.98632812 C107.20270382 206.54248562 104.57216402 207.67917826 99.62890625 207.13671875 C99.29890625 203.50671875 98.96890625 199.87671875 98.62890625 196.13671875 C97.30890625 195.80671875 95.98890625 195.47671875 94.62890625 195.13671875 C94.00390625 193.32421875 94.00390625 193.32421875 93.62890625 191.13671875 C94.28890625 190.14671875 94.94890625 189.15671875 95.62890625 188.13671875 C94.23671875 187.70359375 94.23671875 187.70359375 92.81640625 187.26171875 C89.62890625 186.13671875 89.62890625 186.13671875 86.62890625 184.13671875 C86.44140625 181.51171875 86.44140625 181.51171875 86.62890625 179.13671875 C85.47854385 179.13893936 84.32818146 179.14115997 83.14295959 179.14344788 C72.32690566 179.16367797 61.51085555 179.17869025 50.69478703 179.18853092 C45.13351214 179.19376009 39.57225246 179.20085833 34.01098633 179.2121582 C28.64883206 179.2229859 23.28669247 179.22899533 17.92452812 179.23159599 C15.87390347 179.23345046 13.82327965 179.23707147 11.77266121 179.24244881 C8.91100422 179.24965768 6.04940868 179.25070976 3.18774414 179.25024414 C1.90273514 179.25563705 1.90273514 179.25563705 0.59176636 179.26113892 C-5.25704159 179.25077091 -5.25704159 179.25077091 -6.37109375 178.13671875 C-6.47038437 175.86078033 -6.49741824 173.581692 -6.49807739 171.30358887 C-6.49963738 170.58065124 -6.50119737 169.85771361 -6.50280464 169.11286879 C-6.50681718 166.67223079 -6.50362402 164.23165417 -6.50048828 161.79101562 C-6.50184221 160.04867008 -6.50362209 158.30632482 -6.50579834 156.5639801 C-6.51037368 151.81824866 -6.5085827 147.07253886 -6.50541925 142.32680702 C-6.50289617 137.3718014 -6.50523305 132.41679769 -6.50680542 127.46179199 C-6.50862727 119.13907538 -6.50622041 110.81636762 -6.50146484 102.49365234 C-6.4960222 92.85689252 -6.49778484 83.22015384 -6.50329125 73.58339453 C-6.50782195 65.32525116 -6.50847314 57.06711418 -6.50585258 48.80896997 C-6.50428957 43.86983042 -6.5040967 38.93070082 -6.50738907 33.99156189 C-6.51026716 29.34922732 -6.50829324 24.70692014 -6.50249481 20.06458855 C-6.50116688 18.35569746 -6.50156189 16.64680409 -6.50375748 14.93791389 C-6.50646769 12.6151938 -6.50308946 10.29256295 -6.49807739 7.96984863 C-6.49770037 6.66681038 -6.49732334 5.36377213 -6.49693489 4.02124786 C-6.2828182 -0.88673227 -4.43650516 0.00854818 0 0 Z " fill="#040404" transform="translate(10.37109375,9.86328125)"/>
<path d="M0 0 C3.62011046 2.33296007 5.89022378 4.96794755 7.8125 8.8125 C8.41042896 14.79178964 7.14268226 18.93262897 3.8125 23.8125 C0.02857828 27.37383809 -3.84045572 27.10705244 -8.78515625 27.015625 C-11.1875 26.8125 -11.1875 26.8125 -13.11206055 26.11621094 C-15.24515823 25.57221328 -15.24515823 25.57221328 -16.98339844 26.96484375 C-17.5818457 27.55394531 -18.18029297 28.14304687 -18.796875 28.75 C-19.46976563 29.39839844 -20.14265625 30.04679687 -20.8359375 30.71484375 C-21.52945313 31.40707031 -22.22296875 32.09929688 -22.9375 32.8125 C-24.30599064 34.14716863 -25.67578114 35.48050577 -27.046875 36.8125 C-27.72137695 37.47822021 -28.39587891 38.14394043 -29.09082031 38.82983398 C-31.84287261 41.43223462 -34.7720296 43.79294473 -37.75195312 46.12915039 C-39.41481303 47.73391741 -39.41481303 47.73391741 -39.30932617 50.09301758 C-39.05298177 51.58008442 -38.76701188 53.06224422 -38.45703125 54.5390625 C-38.05116723 57.96243724 -39.05667629 60.14849877 -40.76171875 63.078125 C-43.34892792 66.22530547 -46.27127385 67.7942812 -50.1875 68.8125 C-55.79840003 69.22228483 -59.91589424 67.48806775 -64.1875 63.8125 C-66.19393742 60.53531888 -67.1875 58.66009538 -67.1875 54.8125 C-70.14688325 54.31198034 -73.10656886 53.81794898 -76.0703125 53.34375 C-77.84551249 53.04120965 -79.61760732 52.70767098 -81.3671875 52.28125 C-83.32178333 51.76617789 -83.32178333 51.76617789 -86.1875 51.8125 C-88.9375 54.0625 -88.9375 54.0625 -91.1875 56.8125 C-94.7708863 59.40736594 -98.91755941 59.35320011 -103.1875 58.8125 C-103.95707031 58.37550781 -104.72664063 57.93851563 -105.51953125 57.48828125 C-106.39996094 57.26527344 -107.28039062 57.04226562 -108.1875 56.8125 C-110.7381348 58.36197984 -112.71555883 59.81300867 -114.9375 61.75 C-116.17351351 62.790211 -117.41049377 63.82927438 -118.6484375 64.8671875 C-119.54900879 65.63240723 -119.54900879 65.63240723 -120.46777344 66.41308594 C-122.71885072 68.2448825 -125.1387634 69.78225881 -127.5625 71.375 C-130.10008727 73.31194735 -131.06525045 74.07188137 -131.58984375 77.25 C-131.53047992 78.98445634 -131.41800687 80.71799187 -131.25 82.4453125 C-131.13267098 86.88914898 -134.01161195 89.44846987 -136.75 92.625 C-139.97317448 95.2876224 -143.84838804 95.20305411 -147.83203125 95.1640625 C-151.71875321 94.58395475 -154.50924975 92.63171079 -157.1875 89.8125 C-159.95069574 85.39508339 -159.83416067 80.86603338 -159.1875 75.8125 C-157.02446971 71.40632719 -154.77635076 68.6480403 -150.1875 66.8125 C-146.07569048 66.34065301 -142.49943396 66.07399413 -138.828125 68.140625 C-137.95671875 68.36234375 -137.0853125 68.5840625 -136.1875 68.8125 C-133.6368652 67.26302016 -131.65944117 65.81199133 -129.4375 63.875 C-128.20148649 62.834789 -126.96450623 61.79572562 -125.7265625 60.7578125 C-124.82599121 59.99259277 -124.82599121 59.99259277 -123.90722656 59.21191406 C-121.65614928 57.3801175 -119.2362366 55.84274119 -116.8125 54.25 C-114.27491273 52.31305265 -113.30974955 51.55311863 -112.78515625 48.375 C-112.84455878 46.63941293 -112.95452281 44.90474954 -113.1171875 43.17578125 C-113.2592362 38.40136654 -110.03567697 35.73337785 -107 32.4375 C-103.00062002 30.12674712 -99.7003037 30.04748704 -95.1875 30.8125 C-91.41314978 32.16981441 -88.76855344 34.08149728 -86.25 37.25 C-85.10582518 40.00948045 -85.10379648 41.86318185 -85.1875 44.8125 C-84.58164063 44.87308594 -83.97578125 44.93367188 -83.3515625 44.99609375 C-82.51367188 45.07988281 -81.67578125 45.16367187 -80.8125 45.25 C-79.90113281 45.3325 -78.98976563 45.415 -78.05078125 45.5 C-75.1875 45.8125 -75.1875 45.8125 -72.54296875 46.3125 C-67.71627459 47.28180459 -67.71627459 47.28180459 -63.35546875 45.5390625 C-62.24347124 44.4296692 -61.1392506 43.31242579 -60.04296875 42.1875 C-56.5307974 39.58479618 -52.34200417 40.26274149 -48.1875 40.8125 C-47.54031006 41.03091553 -46.89312012 41.24933105 -46.22631836 41.47436523 C-45.5535083 41.58594971 -44.88069824 41.69753418 -44.1875 41.8125 C-41.90490139 40.04922276 -39.96669198 38.33432595 -37.9375 36.3125 C-36.77793581 35.19990345 -35.61778101 34.08792212 -34.45703125 32.9765625 C-33.61712646 32.16106934 -33.61712646 32.16106934 -32.76025391 31.32910156 C-30.75821273 29.39853966 -28.70751332 27.53077921 -26.625 25.6875 C-26.04621094 25.16929688 -25.46742188 24.65109375 -24.87109375 24.1171875 C-23.06972846 22.72123388 -21.25416404 21.76217057 -19.1875 20.8125 C-19.34347656 20.24144531 -19.49945313 19.67039062 -19.66015625 19.08203125 C-20.72281555 14.50866047 -21.4244946 9.94802813 -18.98828125 5.7421875 C-13.67814694 -0.65137472 -8.2360446 -3.06833034 0 0 Z " fill="#060606" transform="translate(188.1875,7.1875)"/>
<path d="M0 0 C0.66209473 -0.00095673 1.32418945 -0.00191345 2.00634766 -0.00289917 C3.40852961 -0.00358076 4.8107147 -0.00172792 6.21289062 0.00244141 C8.36595713 0.00779004 10.51881502 0.0024958 12.671875 -0.00390625 C14.03125046 -0.00324546 15.3906258 -0.00196429 16.75 0 C18.61785156 0.00169189 18.61785156 0.00169189 20.5234375 0.00341797 C23.375 0.1328125 23.375 0.1328125 24.375 1.1328125 C24.475398 3.70854839 24.51117267 6.25749287 24.50439453 8.83374023 C24.50614685 9.64022003 24.50789917 10.44669983 24.50970459 11.27761841 C24.51412428 13.95723592 24.51118444 16.63678801 24.5078125 19.31640625 C24.50848557 21.17106641 24.50945562 23.02572649 24.51071167 24.88038635 C24.51218885 28.77353757 24.51003367 32.66666589 24.50537109 36.55981445 C24.49967775 41.55815933 24.50295018 46.55645046 24.50894356 51.55479336 C24.51255199 55.3868297 24.51140921 59.21885325 24.50881577 63.05088997 C24.50814707 64.89414539 24.50897291 66.73740197 24.51129532 68.58065605 C24.51382602 71.15463221 24.50997513 73.72852063 24.50439453 76.30249023 C24.50641876 77.06983994 24.50844299 77.83718964 24.51052856 78.62779236 C24.48926341 83.90428569 24.48926341 83.90428569 23.375 86.1328125 C19.28161348 86.18220365 15.18834202 86.21852751 11.09472656 86.24267578 C9.70179219 86.25274127 8.30887898 86.26639484 6.91601562 86.28369141 C4.9154564 86.3079147 2.91474385 86.31822064 0.9140625 86.328125 C-0.29040527 86.33859863 -1.49487305 86.34907227 -2.73583984 86.35986328 C-5.625 86.1328125 -5.625 86.1328125 -7.625 84.1328125 C-7.8181967 81.48787896 -7.88729441 78.94809681 -7.86791992 76.30249023 C-7.86981827 75.49425812 -7.87171661 74.686026 -7.87367249 73.853302 C-7.87738576 71.17423896 -7.86666913 68.49544531 -7.85546875 65.81640625 C-7.85427725 63.96078015 -7.85382372 62.10515344 -7.8540802 60.24952698 C-7.85251443 56.35812614 -7.84421703 52.46681718 -7.83081055 48.57543945 C-7.81380876 43.57589718 -7.80999648 38.57645587 -7.81075573 33.57688808 C-7.81048443 29.74488859 -7.8050098 25.91291137 -7.79775429 22.08091927 C-7.79456207 20.2368391 -7.79259893 18.39275641 -7.79186058 16.54867363 C-7.78970351 13.97698498 -7.78097346 11.40540559 -7.77026367 8.83374023 C-7.77071686 8.0643663 -7.77117004 7.29499237 -7.77163696 6.50230408 C-7.72902929 -0.45939757 -6.77309335 0.00613505 0 0 Z " fill="#020303" transform="translate(80.625,79.8671875)"/>
<path d="M0 0 C9.60459692 7.05611349 15.64000544 16.02157883 19.41796875 27.35546875 C19.6718054 30.55919497 19.64931713 33.76772697 19.66796875 36.98046875 C19.68859375 37.84542969 19.70921875 38.71039063 19.73046875 39.6015625 C19.80377724 51.82575401 15.0475181 61.10683187 6.80859375 69.95703125 C-2.83371679 79.63085261 -13.71171368 83.64471392 -27.23071289 83.67236328 C-33.89214066 83.55082355 -39.50183384 82.11919484 -45.58203125 79.35546875 C-46.48566406 79.00097656 -47.38929688 78.64648438 -48.3203125 78.28125 C-51.15598978 76.88325669 -52.72338024 75.93004459 -54.58203125 73.35546875 C-55.33867749 68.24139876 -55.11027447 63.48138441 -54.58203125 58.35546875 C-53.92203125 58.35546875 -53.26203125 58.35546875 -52.58203125 58.35546875 C-51.53015625 59.68578125 -51.53015625 59.68578125 -50.45703125 61.04296875 C-46.0922341 66.48930856 -40.24577783 69.53153811 -33.58203125 71.35546875 C-21.13127455 72.65816362 -12.28824762 70.93188387 -1.953125 63.453125 C4.25202168 57.9635636 7.9925804 49.79270527 8.6328125 41.609375 C8.95954784 31.34988518 7.11864057 23.34355751 0.43359375 15.39453125 C-6.77973262 8.097329 -15.31590496 4.32246033 -25.51953125 3.91796875 C-34.53044465 4.15902503 -43.00118797 7.75488045 -49.39453125 14.17578125 C-58.04347992 23.65358751 -58.97195275 31.87798086 -58.58203125 44.35546875 C-58.34903514 47.0550099 -58.00218751 49.67697259 -57.58203125 52.35546875 C-59.56701176 51.43034209 -61.54489143 50.48996638 -63.51953125 49.54296875 C-64.62167969 49.02089844 -65.72382813 48.49882812 -66.859375 47.9609375 C-69.58203125 46.35546875 -69.58203125 46.35546875 -70.58203125 43.35546875 C-71.77884422 31.78057758 -69.29582629 20.92785503 -62.33203125 11.48046875 C-46.34751784 -7.05329895 -21.64272364 -13.78454864 0 0 Z " fill="#F6606B" transform="translate(194.58203125,128.64453125)"/>
<path d="M0 0 C6.82516883 3.95549557 12.03726894 8.92490085 14.96484375 16.3515625 C16.92480377 24.02903902 16.59395927 31.89478556 12.875 38.9453125 C8.52628303 45.87608018 3.67108616 50.60619811 -4.375 52.9375 C-12.6925842 53.88192689 -21.46381107 54.38637188 -28.375 48.9375 C-30.19806536 47.34850723 -31.76252957 45.75152923 -33.375 43.9375 C-32.04167905 39.93753714 -29.8792173 39.09967663 -26.375 36.9375 C-24.13804336 38.0145532 -22.18844384 39.07608457 -20.1875 40.5625 C-15.54811383 42.83064435 -11.07063426 42.77751279 -6.15625 41.24609375 C-1.37021524 39.11202228 1.11879981 36.64915636 3.625 31.9375 C4.97656211 27.88281366 5.47881662 24.1602074 3.90625 20.06640625 C1.4493462 15.45971162 -1.64855742 12.30072129 -6.375 9.9375 C-11.97845293 9.34229256 -17.58849855 8.81595826 -22.4375 12.0625 C-25.44161483 14.70025936 -27.15684889 17.06807883 -28.375 20.9375 C-28.59878163 24.61972502 -28.55195467 28.2542213 -28.375 31.9375 C-35 35.9375 -35 35.9375 -38.375 35.9375 C-40.58455157 29.30884529 -40.74632383 19.689793 -37.625 13.3125 C-36.90839812 12.16593699 -36.16140166 11.03736246 -35.375 9.9375 C-34.83875 9.07125 -34.3025 8.205 -33.75 7.3125 C-24.80537516 -1.63212484 -11.85460844 -5.55400242 0 0 Z " fill="#E6E8EA" transform="translate(181.375,141.0625)"/>
<path d="M0 0 C0.67877197 0.00008057 1.35754395 0.00016113 2.05688477 0.00024414 C4.12667451 -0.00194046 6.1959298 -0.02008804 8.265625 -0.0390625 C10.21178711 -0.04196289 10.21178711 -0.04196289 12.19726562 -0.04492188 C13.39536865 -0.04903076 14.59347168 -0.05313965 15.82788086 -0.05737305 C18.70117188 0.18554688 18.70117188 0.18554688 20.70117188 2.18554688 C20.9012349 5.17516791 20.9809011 8.07017037 20.96679688 11.06054688 C20.96966705 12.38094971 20.96966705 12.38094971 20.97259521 13.72802734 C20.97395739 15.59082322 20.97025869 17.45362857 20.96191406 19.31640625 C20.95121494 22.17404423 20.96180819 25.03105353 20.97460938 27.88867188 C20.97328779 29.69596493 20.97072541 31.5032576 20.96679688 33.31054688 C20.97084534 34.16890137 20.9748938 35.02725586 20.97906494 35.91162109 C20.93108932 41.95562943 20.93108932 41.95562943 18.70117188 44.18554688 C15.82788086 44.4284668 15.82788086 44.4284668 12.19726562 44.41601562 C10.89982422 44.41408203 9.60238281 44.41214844 8.265625 44.41015625 C7.58894775 44.40395264 6.91227051 44.39774902 6.21508789 44.39135742 C4.14326717 44.3730874 2.07189291 44.37084783 0 44.37109375 C-10.15874555 44.32562945 -10.15874555 44.32562945 -11.29882812 43.18554688 C-11.39999733 40.09473222 -11.4385137 37.02672132 -11.43164062 33.93554688 C-11.43259735 33.00709961 -11.43355408 32.07865234 -11.43453979 31.12207031 C-11.43522168 29.15494723 -11.43336684 27.18782191 -11.42919922 25.22070312 C-11.42385108 22.19851661 -11.42914395 19.17647873 -11.43554688 16.15429688 C-11.43488609 14.24804654 -11.43360494 12.34179631 -11.43164062 10.43554688 C-11.43366486 9.52514648 -11.43568909 8.61474609 -11.43777466 7.67675781 C-11.402396 -1.72379312 -8.61356621 0.03854903 0 0 Z " fill="#060404" transform="translate(38.298828125,121.814453125)"/>
<path d="M0 0 C5.94 0 11.88 0 18 0 C18 24.09 18 48.18 18 73 C12.06 73 6.12 73 0 73 C0 48.91 0 24.82 0 0 Z " fill="#61F0BC" transform="translate(80,86)"/>
<path d="M0 0 C5.94 0 11.88 0 18 0 C18 21.45 18 42.9 18 65 C12 63.66666667 6 62.33333333 0 61 C0 40.87 0 20.74 0 0 Z " fill="#84C4FB" transform="translate(173,54)"/>
<path d="M0 0 C1.32 0 2.64 0 4 0 C4.33 53.79 4.66 107.58 5 163 C37.67 163 70.34 163 104 163 C100 167 100 167 97.94607162 167.49219131 C97.21232441 167.48850414 96.47857719 167.48481697 95.72259521 167.48101807 C94.45485071 167.48928305 94.45485071 167.48928305 93.16149521 167.497715 C92.2390514 167.48332256 91.31660759 167.46893013 90.36621094 167.45410156 C89.37451023 167.4545837 88.38280952 167.45506584 87.36105728 167.45556259 C84.15179776 167.45257762 80.94346821 167.42212061 77.734375 167.390625 C75.75277148 167.38474367 73.77116176 167.38066307 71.78955078 167.37841797 C64.44293907 167.3574487 57.0964604 167.30160378 49.75 167.25 C33.3325 167.1675 16.915 167.085 0 167 C0 111.89 0 56.78 0 0 Z " fill="#928792" transform="translate(10,16)"/>
<path d="M0 0 C5.94 0 11.88 0 18 0 C18 10.23 18 20.46 18 31 C12.06 31 6.12 31 0 31 C0 20.77 0 10.54 0 0 Z " fill="#F75E69" transform="translate(34,128)"/>
<path d="M0 0 C2.949375 -0.020625 5.89875 -0.04125 8.9375 -0.0625 C9.86812256 -0.071604 10.79874512 -0.08070801 11.75756836 -0.09008789 C12.48596924 -0.09258545 13.21437012 -0.09508301 13.96484375 -0.09765625 C14.7137085 -0.10289307 15.46257324 -0.10812988 16.23413086 -0.11352539 C18 0 18 0 19 1 C19.76751329 6.60160906 20.40633483 12.45603008 19 18 C16.54670638 20.91789967 14.21057094 22.40711383 10.91015625 24.28515625 C7.19014065 26.47721913 4.91869544 29.2016229 2.2421875 32.53125 C1.62730469 33.25828125 1.62730469 33.25828125 1 34 C0.67 34 0.34 34 0 34 C0 22.78 0 11.56 0 0 Z " fill="#EDD16E" transform="translate(126,103)"/>
<path d="M0 0 C3.54103223 3.0021795 5.74201336 5.108098 6.375 9.75 C5.8528401 14.2753858 4.15770622 15.7671103 1 19 C-1.21295616 20.10647808 -2.54672699 20.19588368 -5 20.25 C-5.70125 20.27578125 -6.4025 20.3015625 -7.125 20.328125 C-7.74375 20.21984375 -8.3625 20.1115625 -9 20 C-9.66 19.01 -10.32 18.02 -11 17 C-8.03 15.02 -5.06 13.04 -2 11 C-2.33 9.68 -2.66 8.36 -3 7 C-6.9822186 7.56888837 -9.60567493 8.89001415 -13 11 C-13.66 11 -14.32 11 -15 11 C-14.51136364 4.64772727 -14.51136364 4.64772727 -12.125 1.625 C-8.00350797 -1.5267292 -4.89272372 -1.18100228 0 0 Z " fill="#F15F6A" transform="translate(174,157)"/>
<path d="M0 0 C2.375 1.625 2.375 1.625 4 4 C4 7.77684879 3.78395245 10.03513544 1.375 13 C-2.11581787 14.46981805 -4.39148956 13.98413921 -8 13 C-10.34572071 10.88128452 -10.89543972 9.5974873 -11.4375 6.5 C-10.86227821 3.21301832 -9.53718279 2.08944465 -7 0 C-4.23382717 -1.38308641 -2.92591209 -0.90563946 0 0 Z " fill="#F1D671" transform="translate(139,55)"/>
<path d="M0 0 C2.4375 1.625 2.4375 1.625 4 4 C4.60605429 7.63632575 4.47161336 9.28314769 2.4375 12.375 C-0.8994213 14.5996142 -3.06905293 14.50030235 -7 14 C-8.9375 13 -8.9375 13 -10 11 C-10.52960415 7.41957756 -10.65886567 4.24021772 -8.9375 1 C-5.82090489 -0.60856522 -3.43737531 -0.42213381 0 0 Z " fill="#F5606B" transform="translate(46,81)"/>
<path d="M0 0 C2.375 1.0625 2.375 1.0625 4 3 C4.57491549 6.95254396 4.61372366 9.07941451 2.375 12.4375 C-0.71685231 14.47161336 -2.36367425 14.60605429 -6 14 C-8.375 12.375 -8.375 12.375 -10 10 C-10.61195145 6.3282913 -10.48706506 4.71186432 -8.375 1.625 C-5.30522452 -0.4753727 -3.65443439 -0.53293835 0 0 Z " fill="#69EEBC" transform="translate(92,45)"/>
<path d="M0 0 C2.375 1.625 2.375 1.625 4 4 C4.48288863 7.31123632 4.29618989 9.296549 3 12.375 C0.28967961 14.57713531 -1.70883166 14.51345108 -5.125 14.3125 C-7 14 -7 14 -9 12.9375 C-10.60856522 9.82090489 -10.42213381 7.43737531 -10 4 C-7.26646839 -0.10029741 -4.80388991 -0.80064832 0 0 Z " fill="#85C2F5" transform="translate(185,13)"/>
<path d="M0 0 C2.2421875 1.32421875 2.2421875 1.32421875 4.2421875 3.32421875 C1.71570885 4.91752061 -0.82381084 6.4722843 -3.3828125 8.01171875 C-4.45208984 8.69331055 -4.45208984 8.69331055 -5.54296875 9.38867188 C-7.61526259 10.61493749 -9.44893 11.63426634 -11.7578125 12.32421875 C-15.28125 11.09375 -15.28125 11.09375 -17.7578125 9.32421875 C-15.16242655 6.43349578 -12.18498086 4.53337045 -8.8828125 2.51171875 C-7.85414062 1.86589844 -6.82546875 1.22007812 -5.765625 0.5546875 C-2.7578125 -0.67578125 -2.7578125 -0.67578125 0 0 Z " fill="#D79E69" transform="translate(125.7578125,182.67578125)"/>
<path d="M0 0 C0 2.31 0 4.62 0 7 C-2.28874173 8.33858524 -4.58069656 9.67101014 -6.875 11 C-7.52597656 11.3815625 -8.17695312 11.763125 -8.84765625 12.15625 C-13.7734375 15 -13.7734375 15 -16 15 C-16.5625 12.375 -16.5625 12.375 -16 9 C-12.42483127 5.7519709 -4.91708191 0 0 0 Z " fill="#DBA16B" transform="translate(133,192)"/>
</svg>
